<svg class="img-fluid" id="outputsvg" xmlns="http://www.w3.org/2000/svg" style="transform: matrix(1, 0, 0, 1, 0, 0); transform-origin: 50% 50%; cursor: move; max-height: 421.06px; transition: transform 200ms ease-in-out 0s;" width="1883" height="1678" viewBox="0 0 18830 16780"><g id="l4yRt2DPoLHH889SDKyfQLl" fill="rgb(245,0,87)" style="transform: none;"><g><path id="pJgzUqO4M" d="M5452 16729 c-880 -67 -1454 -712 -1666 -1870 -151 -825 -93 -1968 160 -3134 19 -87 33 -165 32 -173 -2 -8 -130 -55 -313 -116 -1516 -507 -2626 -1177 -3203 -1934 -140 -183 -276 -434 -336 -617 -117 -361 -106 -723 35 -1079 382 -965 1682 -1864 3599 -2491 113 -36 206 -68 207 -69 1 -1 -4 -30 -13 -65 -156 -671 -256 -1437 -271 -2086 -26 -1159 225 -2056 717 -2556 201 -204 404 -326 675 -404 274 -79 618 -91 954 -34 947 161 2088 824 3286 1908 49 44 92 81 96 81 3 0 70 -59 150 -131 1062 -964 2131 -1612 3014 -1829 769 -189 1405 -51 1836 397 153 160 245 294 360 528 342 698 441 1737 283 3000 -33 267 -95 642 -150 905 -25 118 -48 231 -51 250 l-5 35 169 53 c838 266 1630 622 2236 1007 1042 660 1592 1454 1527 2201 -40 460 -267 891 -695 1319 -373 374 -825 687 -1450 1006 -485 247 -1061 481 -1612 655 -87 28 -153 54 -153 60 0 7 16 84 35 171 101 466 178 969 222 1458 25 288 26 1029 0 1265 -85 778 -277 1320 -610 1717 -271 322 -636 509 -1081 552 -693 68 -1597 -241 -2556 -873 -430 -284 -850 -610 -1275 -991 -92 -83 -170 -151 -175 -153 -4 -2 -66 50 -137 114 -1164 1063 -2337 1742 -3273 1894 -119 19 -371 41 -435 38 -16 0 -76 -4 -133 -9z m523 -873 c704 -149 1569 -648 2480 -1429 83 -71 198 -174 257 -228 l108 -99 -110 -116 c-431 -453 -920 -1040 -1366 -1639 l-120 -160 -74 -8 c-655 -69 -1526 -215 -2153 -362 -105 -25 -194 -42 -198 -37 -9 8 -97 453 -133 667 -204 1214 -152 2289 139 2901 146 308 324 468 582 525 130 28 419 21 588 -15z m7464 3 c149 -24 262 -81 375 -188 265 -254 427 -750 477 -1456 15 -214 6 -795 -15 -1025 -35 -367 -82 -680 -172 -1143 l-57 -288 -26 6 c-587 151 -1444 305 -2181 391 -124 14 -228 29 -231 32 -3 4 -91 122 -196 262 -385 517 -805 1021 -1267 1520 -58 63 -106 118 -106 122 0 9 78 82 245 228 999 875 1959 1420 2700 1534 108 17 365 20 454 5z m-3750 -2644 c305 -334 794 -925 778 -941 -2 -2 -118 0 -258 6 -333 13 -1255 13 -1583 -1 -142 -5 -260 -8 -263 -6 -5 6 267 343 446 552 178 208 302 346 480 534 l135 144 60 -64 c32 -35 125 -136 205 -224z m706 -1784 c354 -21 749 -51 756 -59 16 -17 323 -480 416 -627 438 -693 754 -1258 1138 -2037 l157 -317 -190 -383 c-105 -211 -236 -468 -292 -573 -297 -553 -705 -1227 -1083 -1787 -143 -213 -163 -238 -187 -238 -15 0 -121 -7 -236 -15 -634 -44 -1306 -61 -1894 -46 -497 13 -1010 40 -1248 67 l-52 5 -178 267 c-514 769 -936 1500 -1350 2339 l-184 374 97 202 c372 780 873 1653 1417 2469 109 163 203 300 209 303 20 13 526 47 949 65 273 11 1515 5 1755 -9z m-3821 -193 c-4 -7 -73 -119 -154 -248 -213 -341 -432 -707 -553 -925 -99 -179 -323 -598 -331 -620 -2 -5 -6 -7 -10 -4 -13 12 -200 522 -300 819 -116 341 -220 679 -213 686 20 20 823 184 1217 248 151 25 286 47 300 49 47 8 51 7 44 -5z m5880 -23 c438 -69 1347 -253 1371 -277 6 -6 -113 -391 -198 -643 -119 -348 -306 -848 -327 -869 -5 -5 -31 36 -61 95 -79 158 -219 421 -351 658 -177 315 -299 519 -590 984 -57 92 -71 87 156 52z m-8219 -657 c164 -555 447 -1330 714 -1952 45 -104 81 -195 81 -201 0 -7 -38 -100 -84 -206 -261 -604 -515 -1292 -691 -1869 -43 -140 -79 -256 -80 -258 -6 -7 -648 221 -860 306 -879 352 -1545 751 -1980 1187 -304 303 -446 568 -446 830 0 130 25 228 96 370 254 512 1014 1078 2065 1540 145 63 467 190 650 255 257 92 453 158 471 159 12 1 27 -39 64 -161z m10662 81 c509 -173 849 -311 1238 -503 426 -211 789 -434 1075 -662 251 -199 493 -462 608 -659 79 -135 132 -307 132 -425 0 -121 -54 -291 -137 -434 -154 -263 -471 -570 -867 -838 -427 -289 -972 -565 -1576 -798 -169 -65 -702 -250 -721 -250 -4 0 -20 39 -34 88 -201 670 -444 1339 -724 1994 l-101 236 86 199 c267 617 541 1358 709 1920 68 228 63 213 69 213 2 0 111 -36 243 -81z m-9295 -3412 c216 -425 523 -962 840 -1470 72 -114 128 -210 125 -213 -20 -20 -1533 269 -1563 299 -12 12 186 629 318 992 90 248 200 525 207 525 3 0 36 -60 73 -133z m7804 -148 c114 -302 261 -733 349 -1024 l63 -210 -26 -7 c-69 -19 -387 -91 -567 -128 -362 -74 -962 -176 -973 -166 -2 3 50 89 115 193 314 494 581 956 843 1456 50 96 86 155 92 149 5 -5 52 -123 104 -263z m-8362 -2115 c602 -139 1272 -255 1901 -329 121 -14 234 -28 252 -31 27 -4 45 -23 124 -132 372 -513 901 -1153 1355 -1639 68 -73 124 -137 124 -141 0 -12 -263 -246 -473 -420 -950 -792 -1864 -1275 -2557 -1352 -119 -14 -295 -7 -410 16 -104 20 -239 88 -319 161 -449 405 -618 1517 -440 2878 44 339 177 1045 197 1045 3 0 114 -25 246 -56z m8996 53 c0 -2 24 -127 54 -278 90 -452 135 -759 173 -1169 22 -244 25 -913 5 -1115 -52 -525 -164 -916 -339 -1190 -60 -93 -202 -232 -278 -272 -577 -304 -1717 120 -2945 1095 -240 191 -690 581 -690 598 0 3 64 74 142 157 432 464 848 962 1257 1507 101 135 185 246 187 248 1 2 94 14 206 28 481 57 1051 145 1475 230 227 45 641 136 698 153 32 10 55 13 55 8z m-5069 -517 c422 -9 1205 0 1407 16 51 4 82 3 82 -3 0 -14 -258 -334 -450 -558 -153 -178 -345 -391 -526 -584 l-79 -84 -76 79 c-261 270 -744 836 -955 1118 l-29 39 90 -7 c50 -4 291 -11 536 -16z"/></g></g><g id="l5zH5PWqkZ0dT49m5Hm4Y6m" fill="rgb(35,31,32)" style="transform: none;"><g><path id="pc8PHposl" d="M9280 10133 c-498 -35 -914 -142 -1380 -357 -549 -253 -1097 -649 -1638 -1181 -122 -121 -172 -177 -172 -192 0 -63 406 -445 771 -725 560 -431 1207 -760 1790 -912 930 -242 1820 -123 2649 354 352 203 670 451 1005 785 188 187 398 422 423 472 15 31 14 33 -13 70 -63 84 -233 268 -369 400 -711 690 -1554 1134 -2381 1254 -223 32 -502 45 -685 32z m440 -473 c286 -70 496 -185 685 -375 513 -515 512 -1272 -4 -1785 -211 -209 -463 -338 -761 -386 -124 -21 -349 -14 -470 14 -411 95 -753 359 -934 720 -78 156 -136 389 -136 548 0 229 96 514 241 717 214 301 526 494 909 563 110 20 360 11 470 -16z"/><path id="puAPW6rW3" d="M9305 9279 c-93 -13 -246 -66 -330 -115 -198 -116 -352 -329 -402 -558 -25 -109 -21 -329 6 -431 81 -305 318 -542 626 -627 68 -18 106 -22 255 -22 149 0 187 4 255 22 242 67 449 235 559 455 65 130 78 186 83 363 8 230 -29 370 -141 538 -191 287 -533 428 -911 375z"/></g></g><g id="l20ikDOOJlt930P6rPgPGlh" fill="rgb(255,255,255)" style="transform: none;"><g><path id="pyqSMvvcF" d="M9220 9706 c-459 -83 -829 -355 -1020 -751 -315 -651 -33 -1428 634 -1750 191 -92 330 -125 562 -132 259 -8 438 27 651 127 151 71 263 150 384 270 258 257 389 566 389 921 0 356 -130 668 -385 924 -189 190 -398 304 -685 376 -110 27 -414 36 -530 15z m366 -457 c363 -50 656 -325 730 -686 20 -94 15 -287 -10 -378 -24 -91 -101 -236 -165 -312 -120 -143 -281 -247 -456 -294 -115 -32 -335 -32 -450 0 -307 83 -546 322 -626 626 -26 99 -29 267 -6 371 96 441 527 737 983 673z"/></g></g></svg>