<svg class="img-fluid" id="outputsvg" xmlns="http://www.w3.org/2000/svg" style="transform: matrix(0.769231, 0, 0, 0.769231, 0, 0); transform-origin: 50% 50%; cursor: move; transition: transform 200ms ease-in-out 0s;" width="1883" height="1678" viewBox="0 0 18830 16780"><g id="l49w3CjVc7DRiC9kkzd9FzZ" fill="rgb(245,0,87)" style="transform: none;"><g><path id="p1DIozXMkC" d="M5390 16719 c-578 -67 -1027 -396 -1310 -959 -180 -359 -291 -786 -345 -1320 -22 -218 -30 -727 -16 -995 29 -545 99 -1078 215 -1639 25 -121 46 -230 46 -242 0 -25 -22 -34 -360 -149 -2201 -751 -3502 -1827 -3566 -2949 -40 -701 454 -1435 1391 -2065 616 -415 1375 -769 2305 -1076 113 -37 209 -71 213 -75 5 -4 -9 -93 -32 -196 -165 -772 -241 -1446 -241 -2129 0 -1026 210 -1784 633 -2292 294 -353 695 -540 1202 -560 1006 -40 2312 624 3748 1906 66 58 127 106 137 106 10 0 89 -63 176 -141 204 -180 352 -308 484 -415 892 -723 1752 -1203 2490 -1388 646 -162 1174 -100 1610 190 119 79 319 277 412 409 77 108 239 426 293 573 285 783 323 1879 109 3177 -31 188 -127 696 -140 741 -4 13 27 26 158 69 1130 362 2092 840 2735 1357 560 450 907 945 1015 1447 18 82 22 134 22 281 0 158 -3 195 -27 306 -34 163 -73 273 -152 434 -251 514 -796 1034 -1537 1468 -544 319 -1237 624 -1954 861 -111 37 -210 73 -220 80 -18 14 -16 24 39 297 89 443 149 841 194 1279 26 258 26 1169 0 1380 -104 837 -323 1387 -702 1765 -246 246 -544 389 -914 441 -171 24 -475 15 -676 -20 -935 -163 -1989 -760 -3168 -1793 -121 -106 -225 -193 -231 -193 -6 0 -69 53 -141 116 -922 823 -1702 1344 -2485 1662 -506 205 -1017 296 -1410 251z m580 -857 c664 -137 1507 -611 2369 -1330 179 -150 481 -421 481 -431 0 -5 -50 -62 -112 -128 -457 -486 -904 -1022 -1378 -1655 -56 -76 -104 -138 -107 -138 -16 0 -311 -35 -468 -56 -548 -73 -1094 -169 -1645 -289 -277 -61 -320 -69 -320 -63 0 3 -24 128 -54 279 -90 450 -136 765 -173 1164 -21 241 -25 924 -5 1115 44 421 111 715 222 971 146 338 354 530 625 579 88 16 457 4 565 -18z m7512 -7 c365 -75 623 -457 747 -1108 59 -307 66 -407 66 -932 -1 -510 -4 -576 -51 -945 -39 -313 -175 -1082 -195 -1104 -5 -6 -97 12 -230 43 -555 130 -1236 249 -1929 336 -156 20 -285 37 -286 38 0 1 -95 128 -211 282 -387 516 -721 918 -1167 1408 -94 104 -175 198 -181 209 -11 25 14 50 296 292 976 840 1913 1370 2619 1481 121 19 430 19 522 0z m-3859 -2559 c363 -400 847 -979 847 -1014 0 -4 -475 -7 -1055 -7 -580 0 -1055 2 -1055 4 0 15 366 460 564 686 132 151 494 545 501 545 2 0 91 -97 198 -214z m582 -1856 c261 -8 727 -37 895 -56 l55 -6 197 -297 c522 -787 866 -1387 1342 -2339 l177 -354 -244 -481 c-323 -637 -544 -1031 -906 -1612 -140 -226 -522 -805 -569 -864 -19 -24 -26 -25 -293 -42 -581 -37 -807 -44 -1434 -44 -583 0 -839 7 -1290 35 -211 13 -415 29 -441 35 -15 3 -80 93 -214 297 -550 836 -881 1410 -1346 2339 l-174 349 158 323 c388 789 837 1567 1348 2332 107 160 200 298 208 308 10 12 36 20 92 27 85 9 480 36 734 49 219 11 1347 12 1705 1z m-3628 -202 c-2 -7 -85 -143 -184 -303 -335 -540 -471 -775 -715 -1232 -77 -145 -144 -263 -149 -263 -13 0 -21 19 -119 285 -179 488 -408 1190 -397 1218 10 26 657 160 1337 277 190 32 234 36 227 18z m6023 -43 c309 -53 908 -172 1093 -216 71 -17 131 -37 133 -43 10 -26 -183 -623 -331 -1026 -131 -356 -186 -491 -198 -487 -6 2 -42 62 -80 133 -373 701 -495 914 -845 1479 -62 98 -112 185 -112 192 0 21 59 16 340 -32z m-8407 -502 c8 -16 52 -147 97 -293 166 -533 397 -1159 654 -1769 47 -112 86 -214 86 -226 0 -12 -41 -118 -91 -236 -273 -641 -499 -1260 -714 -1951 -29 -93 -51 -148 -59 -148 -30 0 -645 221 -891 320 -683 274 -1236 582 -1672 928 -149 118 -422 395 -506 512 -84 118 -160 270 -188 375 -29 114 -29 272 0 380 96 349 455 744 1021 1122 521 349 1093 620 1924 912 331 117 319 114 339 74z m10749 -64 c889 -308 1549 -629 2088 -1015 187 -134 287 -218 433 -362 277 -273 407 -470 469 -706 54 -210 -12 -456 -190 -706 -133 -188 -428 -466 -693 -657 -414 -297 -1041 -622 -1654 -858 -247 -95 -717 -256 -739 -253 -14 2 -24 18 -37 58 -10 30 -54 171 -99 312 -179 568 -388 1128 -649 1743 -45 105 -81 196 -81 203 0 7 45 118 101 248 266 624 563 1437 719 1972 26 89 37 112 51 112 10 0 136 -41 281 -91z m-9277 -3511 c209 -399 439 -799 735 -1283 168 -273 174 -284 166 -293 -13 -13 -434 60 -1001 173 -465 93 -555 114 -562 131 -14 36 272 899 432 1304 77 194 84 210 94 210 5 0 66 -109 136 -242z m7718 35 c145 -380 437 -1251 437 -1303 0 -12 -34 -21 -320 -85 -301 -67 -582 -121 -933 -180 -276 -46 -317 -51 -317 -37 0 5 46 83 102 173 366 592 552 911 773 1324 122 230 166 305 176 305 4 0 40 -89 82 -197z m-8252 -2203 c640 -142 1238 -242 1939 -326 74 -9 143 -20 152 -25 10 -5 96 -114 191 -242 377 -504 788 -998 1241 -1492 80 -88 146 -164 146 -170 0 -31 -442 -414 -775 -671 -904 -699 -1796 -1114 -2395 -1114 -148 0 -267 15 -353 45 -389 135 -631 613 -723 1430 -22 192 -30 741 -15 987 23 382 61 678 146 1148 72 396 97 500 119 500 7 0 154 -31 327 -70z m8963 -183 c90 -469 135 -761 171 -1127 21 -211 31 -874 16 -1095 -35 -530 -165 -1012 -345 -1283 -70 -105 -217 -242 -307 -285 -423 -202 -1137 -37 -1984 458 -285 167 -670 433 -950 658 -275 221 -675 572 -675 591 0 7 66 85 146 172 459 498 820 932 1248 1496 121 161 195 250 209 253 12 3 96 14 187 25 642 79 1212 173 1735 285 165 36 334 73 375 84 136 34 118 59 174 -232z m-5301 -258 c379 -11 1227 -7 1530 8 114 5 137 4 137 -8 0 -42 -571 -713 -982 -1153 l-73 -79 -120 129 c-166 177 -275 300 -445 499 -236 275 -500 603 -500 620 0 4 14 5 30 1 17 -3 207 -11 423 -17z"/></g></g><g id="l47r7wj8Gj5vgZNlks9L8Eo" fill="rgb(87,87,87)" style="transform: none;"><g><path id="pklPm2udK" d="M9018 10115 c-607 -85 -1211 -326 -1778 -709 -368 -248 -734 -555 -1043 -874 -132 -137 -132 -137 6 -279 699 -719 1646 -1292 2482 -1502 346 -86 522 -104 971 -99 292 4 331 7 464 31 670 123 1236 397 1823 885 211 175 633 600 747 751 53 70 52 93 -7 173 -67 90 -486 507 -623 620 -646 533 -1310 855 -2028 985 -140 25 -167 26 -532 29 -285 2 -410 -1 -482 -11z m733 -469 c507 -134 857 -475 999 -976 27 -92 38 -337 21 -446 -40 -262 -170 -513 -366 -710 -115 -116 -210 -186 -345 -254 -348 -175 -696 -202 -1047 -79 -381 133 -705 449 -832 811 -159 455 -38 946 321 1299 147 144 339 260 544 328 153 51 228 61 429 57 153 -4 195 -8 276 -30z"/><path id="pOnDsE4zn" d="M9289 9280 c-265 -33 -538 -234 -651 -478 -70 -150 -83 -215 -83 -402 1 -192 11 -244 80 -387 105 -216 285 -373 521 -453 92 -31 111 -34 257 -38 99 -3 181 0 220 7 293 56 524 227 652 486 65 131 77 202 72 420 -3 161 -6 187 -29 250 -69 193 -183 346 -329 446 -81 55 -231 124 -298 138 -71 15 -329 22 -412 11z"/></g></g><g id="l5b65nTxLqkuTbisOQcXa7H" fill="rgb(255,255,255)" style="transform: none;"><g><path id="pwy8Jigbd" d="M9290 9708 c-524 -54 -985 -420 -1149 -913 -83 -249 -79 -578 10 -833 127 -362 451 -678 832 -811 163 -57 272 -75 462 -75 190 0 300 18 462 75 210 74 373 177 528 333 196 197 326 449 366 710 18 115 6 415 -20 506 -145 503 -501 850 -1000 975 -133 33 -350 48 -491 33z m385 -470 c64 -13 215 -83 294 -137 146 -100 260 -254 329 -446 21 -60 26 -92 29 -220 6 -185 -9 -263 -72 -390 -129 -259 -359 -430 -653 -486 -38 -7 -112 -10 -190 -7 -109 4 -141 10 -226 38 -235 79 -416 236 -521 453 -65 136 -79 198 -79 357 0 154 16 230 82 372 113 244 387 445 651 478 77 10 284 3 356 -12z"/></g></g></svg>