<svg class="img-fluid" id="outputsvg" xmlns="http://www.w3.org/2000/svg" style="transform: matrix(3.71293, 0, 0, 3.71293, 0, 0); transform-origin: 50% 50%; cursor: move; max-height: 421.06px; transition: transform 200ms ease-in-out 0s;" width="1883" height="1678" viewBox="0 0 18830 16780"><g id="l3muFR61MG46ON6XUt3tK2s" fill="rgb(245,0,87)" style="transform: none;"><g><path id="pJgzUqO4M" d="M5452 16729 c-880 -67 -1454 -712 -1666 -1870 -151 -825 -93 -1968 160 -3134 19 -87 33 -165 32 -173 -2 -8 -130 -55 -313 -116 -1516 -507 -2626 -1177 -3203 -1934 -140 -183 -276 -434 -336 -617 -117 -361 -106 -723 35 -1079 382 -965 1682 -1864 3599 -2491 113 -36 206 -68 207 -69 1 -1 -4 -30 -13 -65 -156 -671 -256 -1437 -271 -2086 -26 -1159 225 -2056 717 -2556 201 -204 404 -326 675 -404 274 -79 618 -91 954 -34 947 161 2088 824 3286 1908 49 44 92 81 96 81 3 0 70 -59 150 -131 1062 -964 2131 -1612 3014 -1829 769 -189 1405 -51 1836 397 153 160 245 294 360 528 342 698 441 1737 283 3000 -33 267 -95 642 -150 905 -25 118 -48 231 -51 250 l-5 35 169 53 c838 266 1630 622 2236 1007 1042 660 1592 1454 1527 2201 -40 460 -267 891 -695 1319 -373 374 -825 687 -1450 1006 -485 247 -1061 481 -1612 655 -87 28 -153 54 -153 60 0 7 16 84 35 171 101 466 178 969 222 1458 25 288 26 1029 0 1265 -85 778 -277 1320 -610 1717 -271 322 -636 509 -1081 552 -693 68 -1597 -241 -2556 -873 -430 -284 -850 -610 -1275 -991 -92 -83 -170 -151 -175 -153 -4 -2 -66 50 -137 114 -1164 1063 -2337 1742 -3273 1894 -119 19 -371 41 -435 38 -16 0 -76 -4 -133 -9z m523 -873 c704 -149 1569 -648 2480 -1429 83 -71 198 -174 257 -228 l108 -99 -110 -116 c-431 -453 -920 -1040 -1366 -1639 l-120 -160 -74 -8 c-655 -69 -1526 -215 -2153 -362 -105 -25 -194 -42 -198 -37 -9 8 -97 453 -133 667 -204 1214 -152 2289 139 2901 146 308 324 468 582 525 130 28 419 21 588 -15z m7464 3 c149 -24 262 -81 375 -188 265 -254 427 -750 477 -1456 15 -214 6 -795 -15 -1025 -35 -367 -82 -680 -172 -1143 l-57 -288 -26 6 c-587 151 -1444 305 -2181 391 -124 14 -228 29 -231 32 -3 4 -91 122 -196 262 -385 517 -805 1021 -1267 1520 -58 63 -106 118 -106 122 0 9 78 82 245 228 999 875 1959 1420 2700 1534 108 17 365 20 454 5z m-3750 -2644 c305 -334 794 -925 778 -941 -2 -2 -118 0 -258 6 -333 13 -1255 13 -1583 -1 -142 -5 -260 -8 -263 -6 -5 6 267 343 446 552 178 208 302 346 480 534 l135 144 60 -64 c32 -35 125 -136 205 -224z m706 -1784 c354 -21 749 -51 756 -59 16 -17 323 -480 416 -627 438 -693 754 -1258 1138 -2037 l157 -317 -190 -383 c-105 -211 -236 -468 -292 -573 -297 -553 -705 -1227 -1083 -1787 -143 -213 -163 -238 -187 -238 -15 0 -121 -7 -236 -15 -634 -44 -1306 -61 -1894 -46 -497 13 -1010 40 -1248 67 l-52 5 -178 267 c-514 769 -936 1500 -1350 2339 l-184 374 97 202 c372 780 873 1653 1417 2469 109 163 203 300 209 303 20 13 526 47 949 65 273 11 1515 5 1755 -9z m-3821 -193 c-4 -7 -73 -119 -154 -248 -213 -341 -432 -707 -553 -925 -99 -179 -323 -598 -331 -620 -2 -5 -6 -7 -10 -4 -13 12 -200 522 -300 819 -116 341 -220 679 -213 686 20 20 823 184 1217 248 151 25 286 47 300 49 47 8 51 7 44 -5z m5880 -23 c438 -69 1347 -253 1371 -277 6 -6 -113 -391 -198 -643 -119 -348 -306 -848 -327 -869 -5 -5 -31 36 -61 95 -79 158 -219 421 -351 658 -177 315 -299 519 -590 984 -57 92 -71 87 156 52z m-8219 -657 c164 -555 447 -1330 714 -1952 45 -104 81 -195 81 -201 0 -7 -38 -100 -84 -206 -261 -604 -515 -1292 -691 -1869 -43 -140 -79 -256 -80 -258 -6 -7 -648 221 -860 306 -879 352 -1545 751 -1980 1187 -304 303 -446 568 -446 830 0 130 25 228 96 370 254 512 1014 1078 2065 1540 145 63 467 190 650 255 257 92 453 158 471 159 12 1 27 -39 64 -161z m10662 81 c509 -173 849 -311 1238 -503 426 -211 789 -434 1075 -662 251 -199 493 -462 608 -659 79 -135 132 -307 132 -425 0 -121 -54 -291 -137 -434 -154 -263 -471 -570 -867 -838 -427 -289 -972 -565 -1576 -798 -169 -65 -702 -250 -721 -250 -4 0 -20 39 -34 88 -201 670 -444 1339 -724 1994 l-101 236 86 199 c267 617 541 1358 709 1920 68 228 63 213 69 213 2 0 111 -36 243 -81z m-9295 -3412 c216 -425 523 -962 840 -1470 72 -114 128 -210 125 -213 -20 -20 -1533 269 -1563 299 -12 12 186 629 318 992 90 248 200 525 207 525 3 0 36 -60 73 -133z m7804 -148 c114 -302 261 -733 349 -1024 l63 -210 -26 -7 c-69 -19 -387 -91 -567 -128 -362 -74 -962 -176 -973 -166 -2 3 50 89 115 193 314 494 581 956 843 1456 50 96 86 155 92 149 5 -5 52 -123 104 -263z m-8362 -2115 c602 -139 1272 -255 1901 -329 121 -14 234 -28 252 -31 27 -4 45 -23 124 -132 372 -513 901 -1153 1355 -1639 68 -73 124 -137 124 -141 0 -12 -263 -246 -473 -420 -950 -792 -1864 -1275 -2557 -1352 -119 -14 -295 -7 -410 16 -104 20 -239 88 -319 161 -449 405 -618 1517 -440 2878 44 339 177 1045 197 1045 3 0 114 -25 246 -56z m8996 53 c0 -2 24 -127 54 -278 90 -452 135 -759 173 -1169 22 -244 25 -913 5 -1115 -52 -525 -164 -916 -339 -1190 -60 -93 -202 -232 -278 -272 -577 -304 -1717 120 -2945 1095 -240 191 -690 581 -690 598 0 3 64 74 142 157 432 464 848 962 1257 1507 101 135 185 246 187 248 1 2 94 14 206 28 481 57 1051 145 1475 230 227 45 641 136 698 153 32 10 55 13 55 8z m-5069 -517 c422 -9 1205 0 1407 16 51 4 82 3 82 -3 0 -14 -258 -334 -450 -558 -153 -178 -345 -391 -526 -584 l-79 -84 -76 79 c-261 270 -744 836 -955 1118 l-29 39 90 -7 c50 -4 291 -11 536 -16z"/></g></g><g id="l3oeuBvlUbnTyudEJVyIv1n" fill="rgb(87,87,87)" style="transform: none;"><g><path id="plDI3Wve0" d="M9055 10125 c-726 -95 -1401 -387 -2085 -903 -274 -207 -429 -342 -697 -606 -239 -235 -237 -205 -30 -411 753 -751 1690 -1296 2552 -1486 280 -61 373 -71 717 -76 257 -4 342 -2 450 12 728 90 1371 390 2028 944 156 131 500 475 643 641 141 165 140 157 8 310 -118 138 -417 433 -556 549 -707 590 -1445 931 -2215 1026 -157 19 -667 19 -815 0z m615 -461 c553 -100 980 -513 1095 -1059 23 -108 23 -313 0 -420 -56 -265 -160 -465 -339 -653 -118 -123 -234 -209 -381 -282 -385 -190 -795 -194 -1181 -10 -259 124 -498 357 -623 608 -45 89 -97 251 -116 356 -89 515 203 1068 700 1323 279 143 560 188 845 137z"/><path id="p15jjo9YBZ" d="M9250 9275 c-182 -40 -326 -119 -450 -244 -91 -92 -132 -153 -185 -278 -53 -122 -68 -220 -63 -392 4 -131 8 -156 37 -241 101 -299 342 -514 657 -586 116 -27 329 -24 449 5 309 75 565 320 647 620 31 112 31 372 0 486 -47 169 -150 331 -283 443 -81 68 -235 150 -334 178 -85 23 -385 29 -475 9z"/></g></g><g id="llNDKZuwWnqGo4TOZhriuf" fill="rgb(255,255,255)" style="transform: none;"><g><path id="pG2hbpgfo" d="M9305 9711 c-425 -50 -785 -264 -1011 -602 -147 -220 -214 -444 -214 -714 0 -358 126 -661 380 -916 424 -425 1070 -529 1615 -259 147 73 263 159 381 282 178 188 282 386 340 653 23 110 23 369 0 480 -118 547 -537 953 -1094 1059 -101 19 -302 28 -397 17z m390 -476 c98 -26 253 -109 334 -177 133 -112 237 -275 282 -443 18 -64 22 -108 22 -215 0 -159 -18 -241 -82 -367 -205 -410 -699 -595 -1124 -423 -243 99 -425 292 -508 540 -60 180 -51 395 26 573 53 125 94 186 185 278 124 125 268 203 450 244 86 19 330 14 415 -10z"/></g></g></svg>
